<?xml version="1.0" encoding="UTF-8"?>
<svg xmlns="http://www.w3.org/2000/svg" xmlns:xlink="http://www.w3.org/1999/xlink" width="516.85" height="298.843" viewBox="0 0 516.85 298.843">
<defs>
<g>
<g id="glyph-0-0">
<path d="M 5.796875 -2.578125 L 5.546875 -2.578125 C 5.4375 -1.5625 5.296875 -0.3125 3.546875 -0.3125 L 2.734375 -0.3125 C 2.265625 -0.3125 2.25 -0.375 2.25 -0.703125 L 2.25 -6.015625 C 2.25 -6.359375 2.25 -6.5 3.1875 -6.5 L 3.515625 -6.5 L 3.515625 -6.8125 C 3.15625 -6.78125 2.25 -6.78125 1.84375 -6.78125 C 1.453125 -6.78125 0.671875 -6.78125 0.328125 -6.8125 L 0.328125 -6.5 L 0.5625 -6.5 C 1.328125 -6.5 1.359375 -6.390625 1.359375 -6.03125 L 1.359375 -0.78125 C 1.359375 -0.421875 1.328125 -0.3125 0.5625 -0.3125 L 0.328125 -0.3125 L 0.328125 0 L 5.515625 0 Z M 5.796875 -2.578125 "/>
</g>
<g id="glyph-0-1">
<path d="M 3.984375 -4.171875 L 5.78125 -5.90625 C 5.859375 -5.984375 6.390625 -6.484375 7.203125 -6.5 L 7.203125 -6.8125 C 6.9375 -6.78125 6.625 -6.78125 6.34375 -6.78125 C 5.984375 -6.78125 5.421875 -6.78125 5.078125 -6.8125 L 5.078125 -6.5 C 5.484375 -6.484375 5.546875 -6.265625 5.546875 -6.171875 C 5.546875 -6.015625 5.4375 -5.90625 5.359375 -5.84375 L 2.25 -2.859375 L 2.25 -6.03125 C 2.25 -6.390625 2.265625 -6.5 3.03125 -6.5 L 3.265625 -6.5 L 3.265625 -6.8125 C 2.921875 -6.78125 2.1875 -6.78125 1.796875 -6.78125 C 1.421875 -6.78125 0.671875 -6.78125 0.328125 -6.8125 L 0.328125 -6.5 L 0.5625 -6.5 C 1.328125 -6.5 1.359375 -6.390625 1.359375 -6.03125 L 1.359375 -0.78125 C 1.359375 -0.421875 1.328125 -0.3125 0.5625 -0.3125 L 0.328125 -0.3125 L 0.328125 0 C 0.671875 -0.03125 1.421875 -0.03125 1.796875 -0.03125 C 2.171875 -0.03125 2.921875 -0.03125 3.265625 0 L 3.265625 -0.3125 L 3.03125 -0.3125 C 2.265625 -0.3125 2.25 -0.421875 2.25 -0.78125 L 2.25 -2.515625 L 3.40625 -3.625 L 5.203125 -0.953125 C 5.265625 -0.859375 5.359375 -0.734375 5.359375 -0.609375 C 5.359375 -0.3125 4.96875 -0.3125 4.765625 -0.3125 L 4.765625 0 C 5.109375 -0.03125 5.8125 -0.03125 6.1875 -0.03125 C 6.546875 -0.03125 6.921875 -0.015625 7.34375 0 L 7.34375 -0.3125 C 6.796875 -0.3125 6.59375 -0.34375 6.296875 -0.78125 Z M 3.984375 -4.171875 "/>
</g>
<g id="glyph-0-2">
<path d="M 2.234375 -3.515625 L 2.234375 -6.09375 C 2.234375 -6.328125 2.234375 -6.453125 2.453125 -6.484375 C 2.546875 -6.5 2.84375 -6.5 3.046875 -6.5 C 3.9375 -6.5 5.046875 -6.453125 5.046875 -5.015625 C 5.046875 -4.328125 4.8125 -3.515625 3.34375 -3.515625 Z M 4.34375 -3.390625 C 5.296875 -3.625 6.078125 -4.234375 6.078125 -5.015625 C 6.078125 -5.96875 4.9375 -6.8125 3.484375 -6.8125 L 0.34375 -6.8125 L 0.34375 -6.5 L 0.59375 -6.5 C 1.359375 -6.5 1.375 -6.390625 1.375 -6.03125 L 1.375 -0.78125 C 1.375 -0.421875 1.359375 -0.3125 0.59375 -0.3125 L 0.34375 -0.3125 L 0.34375 0 C 0.703125 -0.03125 1.421875 -0.03125 1.796875 -0.03125 C 2.1875 -0.03125 2.90625 -0.03125 3.265625 0 L 3.265625 -0.3125 L 3.015625 -0.3125 C 2.25 -0.3125 2.234375 -0.421875 2.234375 -0.78125 L 2.234375 -3.296875 L 3.375 -3.296875 C 3.53125 -3.296875 3.953125 -3.296875 4.3125 -2.953125 C 4.6875 -2.609375 4.6875 -2.296875 4.6875 -1.625 C 4.6875 -0.984375 4.6875 -0.578125 5.09375 -0.203125 C 5.5 0.15625 6.046875 0.21875 6.34375 0.21875 C 7.125 0.21875 7.296875 -0.59375 7.296875 -0.875 C 7.296875 -0.9375 7.296875 -1.046875 7.171875 -1.046875 C 7.0625 -1.046875 7.0625 -0.953125 7.046875 -0.890625 C 6.984375 -0.171875 6.640625 0 6.390625 0 C 5.90625 0 5.828125 -0.515625 5.6875 -1.4375 L 5.546875 -2.234375 C 5.375 -2.875 4.890625 -3.203125 4.34375 -3.390625 Z M 4.34375 -3.390625 "/>
</g>
<g id="glyph-0-3">
<path d="M 5.90625 -0.625 C 6.046875 -0.40625 6.4375 -0.015625 6.546875 -0.015625 C 6.640625 -0.015625 6.640625 -0.09375 6.640625 -0.234375 L 6.640625 -1.96875 C 6.640625 -2.359375 6.671875 -2.40625 7.328125 -2.40625 L 7.328125 -2.71875 C 6.953125 -2.71875 6.40625 -2.6875 6.109375 -2.6875 C 5.71875 -2.6875 4.859375 -2.6875 4.5 -2.71875 L 4.5 -2.40625 L 4.828125 -2.40625 C 5.71875 -2.40625 5.75 -2.296875 5.75 -1.9375 L 5.75 -1.296875 C 5.75 -0.171875 4.484375 -0.09375 4.203125 -0.09375 C 3.5625 -0.09375 1.578125 -0.4375 1.578125 -3.40625 C 1.578125 -6.390625 3.546875 -6.71875 4.140625 -6.71875 C 5.21875 -6.71875 6.125 -5.828125 6.3125 -4.359375 C 6.34375 -4.21875 6.34375 -4.1875 6.484375 -4.1875 C 6.640625 -4.1875 6.640625 -4.21875 6.640625 -4.421875 L 6.640625 -6.78125 C 6.640625 -6.953125 6.640625 -7.03125 6.53125 -7.03125 C 6.484375 -7.03125 6.453125 -7.03125 6.375 -6.90625 L 5.875 -6.171875 C 5.546875 -6.484375 5.015625 -7.03125 4.03125 -7.03125 C 2.171875 -7.03125 0.5625 -5.453125 0.5625 -3.40625 C 0.5625 -1.359375 2.15625 0.21875 4.046875 0.21875 C 4.78125 0.21875 5.578125 -0.046875 5.90625 -0.625 Z M 5.90625 -0.625 "/>
</g>
<g id="glyph-0-4">
<path d="M 0.34375 -6.8125 L 0.34375 -6.5 L 0.59375 -6.5 C 1.359375 -6.5 1.375 -6.390625 1.375 -6.03125 L 1.375 -0.78125 C 1.375 -0.421875 1.359375 -0.3125 0.59375 -0.3125 L 0.34375 -0.3125 L 0.34375 0 L 4 0 C 5.671875 0 7.046875 -1.46875 7.046875 -3.34375 C 7.046875 -5.25 5.703125 -6.8125 4 -6.8125 Z M 2.71875 -0.3125 C 2.25 -0.3125 2.234375 -0.375 2.234375 -0.703125 L 2.234375 -6.09375 C 2.234375 -6.4375 2.25 -6.5 2.71875 -6.5 L 3.71875 -6.5 C 4.34375 -6.5 5.03125 -6.28125 5.53125 -5.578125 C 5.96875 -4.984375 6.046875 -4.125 6.046875 -3.34375 C 6.046875 -2.25 5.859375 -1.640625 5.5 -1.15625 C 5.296875 -0.890625 4.734375 -0.3125 3.734375 -0.3125 Z M 2.71875 -0.3125 "/>
</g>
<g id="glyph-0-5">
<path d="M 6.109375 -6.03125 C 6.109375 -6.390625 6.125 -6.5 6.890625 -6.5 L 7.140625 -6.5 L 7.140625 -6.8125 C 6.78125 -6.78125 6.046875 -6.78125 5.671875 -6.78125 C 5.296875 -6.78125 4.546875 -6.78125 4.203125 -6.8125 L 4.203125 -6.5 L 4.4375 -6.5 C 5.203125 -6.5 5.21875 -6.390625 5.21875 -6.03125 L 5.21875 -3.703125 L 2.25 -3.703125 L 2.25 -6.03125 C 2.25 -6.390625 2.265625 -6.5 3.03125 -6.5 L 3.265625 -6.5 L 3.265625 -6.8125 C 2.921875 -6.78125 2.1875 -6.78125 1.796875 -6.78125 C 1.421875 -6.78125 0.671875 -6.78125 0.328125 -6.8125 L 0.328125 -6.5 L 0.5625 -6.5 C 1.328125 -6.5 1.359375 -6.390625 1.359375 -6.03125 L 1.359375 -0.78125 C 1.359375 -0.421875 1.328125 -0.3125 0.5625 -0.3125 L 0.328125 -0.3125 L 0.328125 0 C 0.671875 -0.03125 1.421875 -0.03125 1.796875 -0.03125 C 2.171875 -0.03125 2.921875 -0.03125 3.265625 0 L 3.265625 -0.3125 L 3.03125 -0.3125 C 2.265625 -0.3125 2.25 -0.421875 2.25 -0.78125 L 2.25 -3.390625 L 5.21875 -3.390625 L 5.21875 -0.78125 C 5.21875 -0.421875 5.203125 -0.3125 4.4375 -0.3125 L 4.203125 -0.3125 L 4.203125 0 C 4.546875 -0.03125 5.28125 -0.03125 5.65625 -0.03125 C 6.046875 -0.03125 6.78125 -0.03125 7.140625 0 L 7.140625 -0.3125 L 6.890625 -0.3125 C 6.125 -0.3125 6.109375 -0.421875 6.109375 -0.78125 Z M 6.109375 -6.03125 "/>
</g>
<g id="glyph-0-6">
<path d="M 2.9375 -6.375 C 2.9375 -6.625 2.9375 -6.640625 2.703125 -6.640625 C 2.078125 -6 1.203125 -6 0.890625 -6 L 0.890625 -5.6875 C 1.09375 -5.6875 1.671875 -5.6875 2.1875 -5.953125 L 2.1875 -0.78125 C 2.1875 -0.421875 2.15625 -0.3125 1.265625 -0.3125 L 0.953125 -0.3125 L 0.953125 0 C 1.296875 -0.03125 2.15625 -0.03125 2.5625 -0.03125 C 2.953125 -0.03125 3.828125 -0.03125 4.171875 0 L 4.171875 -0.3125 L 3.859375 -0.3125 C 2.953125 -0.3125 2.9375 -0.421875 2.9375 -0.78125 Z M 2.9375 -6.375 "/>
</g>
<g id="glyph-0-7">
<path d="M 1.265625 -0.765625 L 2.328125 -1.796875 C 3.875 -3.171875 4.46875 -3.703125 4.46875 -4.703125 C 4.46875 -5.84375 3.578125 -6.640625 2.359375 -6.640625 C 1.234375 -6.640625 0.5 -5.71875 0.5 -4.828125 C 0.5 -4.28125 1 -4.28125 1.03125 -4.28125 C 1.203125 -4.28125 1.546875 -4.390625 1.546875 -4.8125 C 1.546875 -5.0625 1.359375 -5.328125 1.015625 -5.328125 C 0.9375 -5.328125 0.921875 -5.328125 0.890625 -5.3125 C 1.109375 -5.96875 1.65625 -6.328125 2.234375 -6.328125 C 3.140625 -6.328125 3.5625 -5.515625 3.5625 -4.703125 C 3.5625 -3.90625 3.078125 -3.125 2.515625 -2.5 L 0.609375 -0.375 C 0.5 -0.265625 0.5 -0.234375 0.5 0 L 4.203125 0 L 4.46875 -1.734375 L 4.234375 -1.734375 C 4.171875 -1.4375 4.109375 -1 4 -0.84375 C 3.9375 -0.765625 3.28125 -0.765625 3.0625 -0.765625 Z M 1.265625 -0.765625 "/>
</g>
<g id="glyph-0-8">
<path d="M 2.890625 -3.515625 C 3.703125 -3.78125 4.28125 -4.46875 4.28125 -5.265625 C 4.28125 -6.078125 3.40625 -6.640625 2.453125 -6.640625 C 1.453125 -6.640625 0.6875 -6.046875 0.6875 -5.28125 C 0.6875 -4.953125 0.90625 -4.765625 1.203125 -4.765625 C 1.5 -4.765625 1.703125 -4.984375 1.703125 -5.28125 C 1.703125 -5.765625 1.234375 -5.765625 1.09375 -5.765625 C 1.390625 -6.265625 2.046875 -6.390625 2.40625 -6.390625 C 2.828125 -6.390625 3.375 -6.171875 3.375 -5.28125 C 3.375 -5.15625 3.34375 -4.578125 3.09375 -4.140625 C 2.796875 -3.65625 2.453125 -3.625 2.203125 -3.625 C 2.125 -3.609375 1.890625 -3.59375 1.8125 -3.59375 C 1.734375 -3.578125 1.671875 -3.5625 1.671875 -3.46875 C 1.671875 -3.359375 1.734375 -3.359375 1.90625 -3.359375 L 2.34375 -3.359375 C 3.15625 -3.359375 3.53125 -2.6875 3.53125 -1.703125 C 3.53125 -0.34375 2.84375 -0.0625 2.40625 -0.0625 C 1.96875 -0.0625 1.21875 -0.234375 0.875 -0.8125 C 1.21875 -0.765625 1.53125 -0.984375 1.53125 -1.359375 C 1.53125 -1.71875 1.265625 -1.921875 0.984375 -1.921875 C 0.734375 -1.921875 0.421875 -1.78125 0.421875 -1.34375 C 0.421875 -0.4375 1.34375 0.21875 2.4375 0.21875 C 3.65625 0.21875 4.5625 -0.6875 4.5625 -1.703125 C 4.5625 -2.515625 3.921875 -3.296875 2.890625 -3.515625 Z M 2.890625 -3.515625 "/>
</g>
<g id="glyph-0-9">
<path d="M 2.9375 -1.640625 L 2.9375 -0.78125 C 2.9375 -0.421875 2.90625 -0.3125 2.171875 -0.3125 L 1.96875 -0.3125 L 1.96875 0 C 2.375 -0.03125 2.890625 -0.03125 3.3125 -0.03125 C 3.734375 -0.03125 4.25 -0.03125 4.671875 0 L 4.671875 -0.3125 L 4.453125 -0.3125 C 3.71875 -0.3125 3.703125 -0.421875 3.703125 -0.78125 L 3.703125 -1.640625 L 4.6875 -1.640625 L 4.6875 -1.953125 L 3.703125 -1.953125 L 3.703125 -6.484375 C 3.703125 -6.6875 3.703125 -6.75 3.53125 -6.75 C 3.453125 -6.75 3.421875 -6.75 3.34375 -6.625 L 0.28125 -1.953125 L 0.28125 -1.640625 Z M 2.984375 -1.953125 L 0.5625 -1.953125 L 2.984375 -5.671875 Z M 2.984375 -1.953125 "/>
</g>
<g id="glyph-0-10">
<path d="M 1.3125 -3.265625 L 1.3125 -3.515625 C 1.3125 -6.03125 2.546875 -6.390625 3.0625 -6.390625 C 3.296875 -6.390625 3.71875 -6.328125 3.9375 -5.984375 C 3.78125 -5.984375 3.390625 -5.984375 3.390625 -5.546875 C 3.390625 -5.234375 3.625 -5.078125 3.84375 -5.078125 C 4 -5.078125 4.3125 -5.171875 4.3125 -5.5625 C 4.3125 -6.15625 3.875 -6.640625 3.046875 -6.640625 C 1.765625 -6.640625 0.421875 -5.359375 0.421875 -3.15625 C 0.421875 -0.484375 1.578125 0.21875 2.5 0.21875 C 3.609375 0.21875 4.5625 -0.71875 4.5625 -2.03125 C 4.5625 -3.296875 3.671875 -4.25 2.5625 -4.25 C 1.890625 -4.25 1.515625 -3.75 1.3125 -3.265625 Z M 2.5 -0.0625 C 1.875 -0.0625 1.578125 -0.65625 1.515625 -0.8125 C 1.328125 -1.28125 1.328125 -2.078125 1.328125 -2.25 C 1.328125 -3.03125 1.65625 -4.03125 2.546875 -4.03125 C 2.71875 -4.03125 3.171875 -4.03125 3.484375 -3.40625 C 3.65625 -3.046875 3.65625 -2.53125 3.65625 -2.046875 C 3.65625 -1.5625 3.65625 -1.0625 3.484375 -0.703125 C 3.1875 -0.109375 2.734375 -0.0625 2.5 -0.0625 Z M 2.5 -0.0625 "/>
</g>
<g id="glyph-0-11">
<path d="M 4.75 -6.078125 C 4.828125 -6.1875 4.828125 -6.203125 4.828125 -6.421875 L 2.40625 -6.421875 C 1.203125 -6.421875 1.171875 -6.546875 1.140625 -6.734375 L 0.890625 -6.734375 L 0.5625 -4.6875 L 0.8125 -4.6875 C 0.84375 -4.84375 0.921875 -5.46875 1.0625 -5.59375 C 1.125 -5.65625 1.90625 -5.65625 2.03125 -5.65625 L 4.09375 -5.65625 C 3.984375 -5.5 3.203125 -4.40625 2.984375 -4.078125 C 2.078125 -2.734375 1.75 -1.34375 1.75 -0.328125 C 1.75 -0.234375 1.75 0.21875 2.21875 0.21875 C 2.671875 0.21875 2.671875 -0.234375 2.671875 -0.328125 L 2.671875 -0.84375 C 2.671875 -1.390625 2.703125 -1.9375 2.78125 -2.46875 C 2.828125 -2.703125 2.953125 -3.5625 3.40625 -4.171875 Z M 4.75 -6.078125 "/>
</g>
<g id="glyph-0-12">
<path d="M 4.46875 -2 C 4.46875 -3.1875 3.65625 -4.1875 2.578125 -4.1875 C 2.109375 -4.1875 1.671875 -4.03125 1.3125 -3.671875 L 1.3125 -5.625 C 1.515625 -5.5625 1.84375 -5.5 2.15625 -5.5 C 3.390625 -5.5 4.09375 -6.40625 4.09375 -6.53125 C 4.09375 -6.59375 4.0625 -6.640625 3.984375 -6.640625 C 3.984375 -6.640625 3.953125 -6.640625 3.90625 -6.609375 C 3.703125 -6.515625 3.21875 -6.3125 2.546875 -6.3125 C 2.15625 -6.3125 1.6875 -6.390625 1.21875 -6.59375 C 1.140625 -6.625 1.125 -6.625 1.109375 -6.625 C 1 -6.625 1 -6.546875 1 -6.390625 L 1 -3.4375 C 1 -3.265625 1 -3.1875 1.140625 -3.1875 C 1.21875 -3.1875 1.234375 -3.203125 1.28125 -3.265625 C 1.390625 -3.421875 1.75 -3.96875 2.5625 -3.96875 C 3.078125 -3.96875 3.328125 -3.515625 3.40625 -3.328125 C 3.5625 -2.953125 3.59375 -2.578125 3.59375 -2.078125 C 3.59375 -1.71875 3.59375 -1.125 3.34375 -0.703125 C 3.109375 -0.3125 2.734375 -0.0625 2.28125 -0.0625 C 1.5625 -0.0625 0.984375 -0.59375 0.8125 -1.171875 C 0.84375 -1.171875 0.875 -1.15625 0.984375 -1.15625 C 1.3125 -1.15625 1.484375 -1.40625 1.484375 -1.640625 C 1.484375 -1.890625 1.3125 -2.140625 0.984375 -2.140625 C 0.84375 -2.140625 0.5 -2.0625 0.5 -1.609375 C 0.5 -0.75 1.1875 0.21875 2.296875 0.21875 C 3.453125 0.21875 4.46875 -0.734375 4.46875 -2 Z M 4.46875 -2 "/>
</g>
<g id="glyph-0-13">
<path d="M 1.625 -4.5625 C 1.171875 -4.859375 1.125 -5.1875 1.125 -5.359375 C 1.125 -5.96875 1.78125 -6.390625 2.484375 -6.390625 C 3.203125 -6.390625 3.84375 -5.875 3.84375 -5.15625 C 3.84375 -4.578125 3.453125 -4.109375 2.859375 -3.765625 Z M 3.078125 -3.609375 C 3.796875 -3.984375 4.28125 -4.5 4.28125 -5.15625 C 4.28125 -6.078125 3.40625 -6.640625 2.5 -6.640625 C 1.5 -6.640625 0.6875 -5.90625 0.6875 -4.96875 C 0.6875 -4.796875 0.703125 -4.34375 1.125 -3.875 C 1.234375 -3.765625 1.609375 -3.515625 1.859375 -3.34375 C 1.28125 -3.046875 0.421875 -2.5 0.421875 -1.5 C 0.421875 -0.453125 1.4375 0.21875 2.484375 0.21875 C 3.609375 0.21875 4.5625 -0.609375 4.5625 -1.671875 C 4.5625 -2.03125 4.453125 -2.484375 4.0625 -2.90625 C 3.875 -3.109375 3.71875 -3.203125 3.078125 -3.609375 Z M 2.078125 -3.1875 L 3.3125 -2.40625 C 3.59375 -2.21875 4.0625 -1.921875 4.0625 -1.3125 C 4.0625 -0.578125 3.3125 -0.0625 2.5 -0.0625 C 1.640625 -0.0625 0.921875 -0.671875 0.921875 -1.5 C 0.921875 -2.078125 1.234375 -2.71875 2.078125 -3.1875 Z M 2.078125 -3.1875 "/>
</g>
<g id="glyph-1-0">
<path d="M 2.578125 -6.8125 C 2.578125 -6.8125 2.578125 -6.921875 2.4375 -6.921875 C 2.21875 -6.921875 1.484375 -6.84375 1.21875 -6.8125 C 1.140625 -6.8125 1.03125 -6.796875 1.03125 -6.609375 C 1.03125 -6.5 1.140625 -6.5 1.28125 -6.5 C 1.765625 -6.5 1.78125 -6.40625 1.78125 -6.328125 L 1.75 -6.125 L 0.484375 -1.140625 C 0.453125 -1.03125 0.4375 -0.96875 0.4375 -0.8125 C 0.4375 -0.234375 0.875 0.109375 1.34375 0.109375 C 1.671875 0.109375 1.921875 -0.09375 2.09375 -0.453125 C 2.265625 -0.828125 2.390625 -1.40625 2.390625 -1.421875 C 2.390625 -1.53125 2.296875 -1.53125 2.265625 -1.53125 C 2.171875 -1.53125 2.15625 -1.484375 2.140625 -1.34375 C 1.96875 -0.703125 1.78125 -0.109375 1.375 -0.109375 C 1.078125 -0.109375 1.078125 -0.421875 1.078125 -0.5625 C 1.078125 -0.8125 1.09375 -0.859375 1.140625 -1.046875 Z M 2.578125 -6.8125 "/>
</g>
<g id="glyph-1-1">
<path d="M 0.875 -0.59375 C 0.84375 -0.4375 0.78125 -0.203125 0.78125 -0.15625 C 0.78125 0.015625 0.921875 0.109375 1.078125 0.109375 C 1.203125 0.109375 1.375 0.03125 1.453125 -0.171875 C 1.46875 -0.203125 1.796875 -1.5625 1.84375 -1.75 C 1.921875 -2.078125 2.109375 -2.765625 2.15625 -3.046875 C 2.203125 -3.171875 2.484375 -3.640625 2.71875 -3.859375 C 2.796875 -3.921875 3.09375 -4.1875 3.515625 -4.1875 C 3.78125 -4.1875 3.921875 -4.0625 3.9375 -4.0625 C 3.640625 -4.015625 3.421875 -3.78125 3.421875 -3.515625 C 3.421875 -3.359375 3.53125 -3.171875 3.796875 -3.171875 C 4.0625 -3.171875 4.34375 -3.40625 4.34375 -3.765625 C 4.34375 -4.109375 4.03125 -4.40625 3.515625 -4.40625 C 2.875 -4.40625 2.4375 -3.921875 2.25 -3.640625 C 2.15625 -4.09375 1.796875 -4.40625 1.328125 -4.40625 C 0.875 -4.40625 0.6875 -4.015625 0.59375 -3.84375 C 0.421875 -3.5 0.296875 -2.90625 0.296875 -2.875 C 0.296875 -2.765625 0.390625 -2.765625 0.40625 -2.765625 C 0.515625 -2.765625 0.515625 -2.78125 0.578125 -3 C 0.75 -3.703125 0.953125 -4.1875 1.3125 -4.1875 C 1.46875 -4.1875 1.609375 -4.109375 1.609375 -3.734375 C 1.609375 -3.515625 1.578125 -3.40625 1.453125 -2.890625 Z M 0.875 -0.59375 "/>
</g>
<g id="glyph-1-2">
<path d="M 4.6875 -3.765625 C 4.703125 -3.8125 4.71875 -3.875 4.71875 -3.9375 C 4.71875 -4.109375 4.609375 -4.203125 4.4375 -4.203125 C 4.34375 -4.203125 4.0625 -4.140625 4.03125 -3.78125 C 3.84375 -4.140625 3.5 -4.40625 3.09375 -4.40625 C 1.96875 -4.40625 0.734375 -3.015625 0.734375 -1.578125 C 0.734375 -0.59375 1.328125 0 2.046875 0 C 2.640625 0 3.109375 -0.46875 3.203125 -0.578125 L 3.21875 -0.5625 C 3.015625 0.3125 2.890625 0.734375 2.890625 0.75 C 2.84375 0.84375 2.515625 1.828125 1.453125 1.828125 C 1.265625 1.828125 0.9375 1.8125 0.65625 1.71875 C 0.953125 1.640625 1.0625 1.375 1.0625 1.203125 C 1.0625 1.046875 0.953125 0.859375 0.6875 0.859375 C 0.46875 0.859375 0.15625 1.03125 0.15625 1.4375 C 0.15625 1.84375 0.515625 2.046875 1.46875 2.046875 C 2.71875 2.046875 3.4375 1.265625 3.59375 0.671875 Z M 3.40625 -1.28125 C 3.34375 -1.015625 3.109375 -0.765625 2.890625 -0.578125 C 2.6875 -0.40625 2.375 -0.21875 2.078125 -0.21875 C 1.578125 -0.21875 1.4375 -0.734375 1.4375 -1.140625 C 1.4375 -1.609375 1.71875 -2.796875 2 -3.296875 C 2.265625 -3.78125 2.6875 -4.1875 3.109375 -4.1875 C 3.765625 -4.1875 3.90625 -3.375 3.90625 -3.328125 C 3.90625 -3.28125 3.890625 -3.21875 3.875 -3.1875 Z M 3.40625 -1.28125 "/>
</g>
<g id="glyph-1-3">
<path d="M 2.859375 -6.8125 C 2.859375 -6.8125 2.859375 -6.921875 2.734375 -6.921875 C 2.5 -6.921875 1.78125 -6.84375 1.515625 -6.8125 C 1.4375 -6.8125 1.328125 -6.796875 1.328125 -6.625 C 1.328125 -6.5 1.421875 -6.5 1.5625 -6.5 C 2.046875 -6.5 2.0625 -6.4375 2.0625 -6.328125 L 2.03125 -6.125 L 0.59375 -0.390625 C 0.546875 -0.25 0.546875 -0.234375 0.546875 -0.171875 C 0.546875 0.0625 0.75 0.109375 0.84375 0.109375 C 1 0.109375 1.15625 -0.015625 1.203125 -0.15625 L 1.390625 -0.90625 L 1.609375 -1.796875 C 1.671875 -2.03125 1.734375 -2.25 1.78125 -2.46875 C 1.796875 -2.53125 1.890625 -2.859375 1.890625 -2.921875 C 1.921875 -3.015625 2.234375 -3.5625 2.578125 -3.84375 C 2.796875 -4 3.09375 -4.1875 3.53125 -4.1875 C 3.953125 -4.1875 4.0625 -3.84375 4.0625 -3.484375 C 4.0625 -2.953125 3.6875 -1.859375 3.453125 -1.25 C 3.375 -1.03125 3.3125 -0.90625 3.3125 -0.703125 C 3.3125 -0.234375 3.671875 0.109375 4.140625 0.109375 C 5.078125 0.109375 5.4375 -1.34375 5.4375 -1.421875 C 5.4375 -1.53125 5.359375 -1.53125 5.328125 -1.53125 C 5.21875 -1.53125 5.21875 -1.5 5.171875 -1.34375 C 5.03125 -0.8125 4.703125 -0.109375 4.15625 -0.109375 C 3.984375 -0.109375 3.921875 -0.203125 3.921875 -0.4375 C 3.921875 -0.6875 4 -0.921875 4.09375 -1.140625 C 4.25 -1.578125 4.703125 -2.765625 4.703125 -3.34375 C 4.703125 -3.984375 4.3125 -4.40625 3.5625 -4.40625 C 2.9375 -4.40625 2.453125 -4.09375 2.078125 -3.640625 Z M 2.859375 -6.8125 "/>
</g>
<g id="glyph-1-4">
<path d="M 0.875 -0.59375 C 0.84375 -0.4375 0.78125 -0.203125 0.78125 -0.15625 C 0.78125 0.015625 0.921875 0.109375 1.078125 0.109375 C 1.203125 0.109375 1.375 0.03125 1.453125 -0.171875 C 1.453125 -0.1875 1.578125 -0.65625 1.640625 -0.90625 L 1.859375 -1.796875 C 1.90625 -2.03125 1.96875 -2.25 2.03125 -2.46875 C 2.0625 -2.640625 2.140625 -2.9375 2.15625 -2.96875 C 2.296875 -3.28125 2.828125 -4.1875 3.78125 -4.1875 C 4.234375 -4.1875 4.3125 -3.8125 4.3125 -3.484375 C 4.3125 -3.234375 4.25 -2.953125 4.171875 -2.65625 L 3.890625 -1.5 L 3.6875 -0.75 C 3.65625 -0.546875 3.5625 -0.203125 3.5625 -0.15625 C 3.5625 0.015625 3.703125 0.109375 3.84375 0.109375 C 4.15625 0.109375 4.21875 -0.140625 4.296875 -0.453125 C 4.4375 -1.015625 4.8125 -2.46875 4.890625 -2.859375 C 4.921875 -2.984375 5.453125 -4.1875 6.546875 -4.1875 C 6.96875 -4.1875 7.078125 -3.84375 7.078125 -3.484375 C 7.078125 -2.921875 6.65625 -1.78125 6.453125 -1.25 C 6.375 -1.015625 6.328125 -0.90625 6.328125 -0.703125 C 6.328125 -0.234375 6.671875 0.109375 7.140625 0.109375 C 8.078125 0.109375 8.453125 -1.34375 8.453125 -1.421875 C 8.453125 -1.53125 8.359375 -1.53125 8.328125 -1.53125 C 8.234375 -1.53125 8.234375 -1.5 8.1875 -1.34375 C 8.03125 -0.8125 7.71875 -0.109375 7.171875 -0.109375 C 7 -0.109375 6.921875 -0.203125 6.921875 -0.4375 C 6.921875 -0.6875 7.015625 -0.921875 7.109375 -1.140625 C 7.296875 -1.671875 7.71875 -2.765625 7.71875 -3.34375 C 7.71875 -3.984375 7.3125 -4.40625 6.5625 -4.40625 C 5.828125 -4.40625 5.3125 -3.96875 4.9375 -3.4375 C 4.9375 -3.5625 4.90625 -3.90625 4.625 -4.140625 C 4.375 -4.359375 4.0625 -4.40625 3.8125 -4.40625 C 2.90625 -4.40625 2.421875 -3.765625 2.25 -3.53125 C 2.203125 -4.109375 1.78125 -4.40625 1.328125 -4.40625 C 0.875 -4.40625 0.6875 -4.015625 0.59375 -3.84375 C 0.421875 -3.484375 0.296875 -2.90625 0.296875 -2.875 C 0.296875 -2.765625 0.390625 -2.765625 0.40625 -2.765625 C 0.515625 -2.765625 0.515625 -2.78125 0.578125 -3 C 0.75 -3.703125 0.953125 -4.1875 1.3125 -4.1875 C 1.46875 -4.1875 1.609375 -4.109375 1.609375 -3.734375 C 1.609375 -3.515625 1.578125 -3.40625 1.453125 -2.890625 Z M 0.875 -0.59375 "/>
</g>
<g id="glyph-2-0">
<path d="M 2.015625 -3.296875 C 2.078125 -3.40625 2.078125 -3.46875 2.078125 -3.515625 C 2.078125 -3.734375 1.890625 -3.890625 1.671875 -3.890625 C 1.40625 -3.890625 1.328125 -3.671875 1.296875 -3.5625 L 0.375 -0.546875 C 0.359375 -0.53125 0.328125 -0.453125 0.328125 -0.4375 C 0.328125 -0.359375 0.546875 -0.28125 0.609375 -0.28125 C 0.65625 -0.28125 0.65625 -0.296875 0.703125 -0.40625 Z M 2.015625 -3.296875 "/>
</g>
</g>
<clipPath id="clip-0">
<path clip-rule="nonzero" d="M 186 202 L 301 202 L 301 298.84375 L 186 298.84375 Z M 186 202 "/>
</clipPath>
</defs>
<path fill="none" stroke-width="0.3985" stroke-linecap="butt" stroke-linejoin="miter" stroke="rgb(50%, 50%, 50%)" stroke-opacity="1" stroke-miterlimit="10" d="M 129.443125 83.620719 L -11.607656 83.620719 C -13.806875 83.620719 -15.592031 81.839469 -15.592031 79.636344 L -15.592031 -11.605844 C -15.592031 -13.805062 -13.806875 -15.590219 -11.607656 -15.590219 L 129.443125 -15.590219 C 131.642344 -15.590219 133.4275 -13.805062 133.4275 -11.605844 L 133.4275 79.636344 C 133.4275 81.839469 131.642344 83.620719 129.443125 83.620719 Z M 129.443125 83.620719 " transform="matrix(1, 0, 0, -1, 23.76, 105.484)"/>
<path fill-rule="nonzero" fill="rgb(100%, 100%, 100%)" fill-opacity="1" d="M 76.242188 26.566406 L 89.113281 26.566406 L 89.113281 7.96875 L 76.242188 7.96875 Z M 76.242188 26.566406 "/>
<g fill="rgb(0%, 0%, 0%)" fill-opacity="1">
<use xlink:href="#glyph-0-0" x="79.564" y="19.659"/>
</g>
<path fill="none" stroke-width="0.3985" stroke-linecap="butt" stroke-linejoin="miter" stroke="rgb(50%, 50%, 50%)" stroke-opacity="1" stroke-miterlimit="10" d="M 305.193125 83.620719 L 164.14625 83.620719 C 161.943125 83.620719 160.157969 81.839469 160.157969 79.636344 L 160.157969 -11.605844 C 160.157969 -13.805062 161.943125 -15.590219 164.14625 -15.590219 L 305.193125 -15.590219 C 307.392344 -15.590219 309.1775 -13.805062 309.1775 -11.605844 L 309.1775 79.636344 C 309.1775 81.839469 307.392344 83.620719 305.193125 83.620719 Z M 305.193125 83.620719 " transform="matrix(1, 0, 0, -1, 23.76, 105.484)"/>
<path fill-rule="nonzero" fill="rgb(100%, 100%, 100%)" fill-opacity="1" d="M 251.234375 26.566406 L 265.621094 26.566406 L 265.621094 7.96875 L 251.234375 7.96875 Z M 251.234375 26.566406 "/>
<g fill="rgb(0%, 0%, 0%)" fill-opacity="1">
<use xlink:href="#glyph-0-1" x="254.55" y="19.659"/>
</g>
<path fill="none" stroke-width="0.3985" stroke-linecap="butt" stroke-linejoin="miter" stroke="rgb(50%, 50%, 50%)" stroke-opacity="1" stroke-miterlimit="10" d="M 480.943125 83.620719 L 339.89625 83.620719 C 337.693125 83.620719 335.907969 81.839469 335.907969 79.636344 L 335.907969 -11.605844 C 335.907969 -13.805062 337.693125 -15.590219 339.89625 -15.590219 L 480.943125 -15.590219 C 483.142344 -15.590219 484.9275 -13.805062 484.9275 -11.605844 L 484.9275 79.636344 C 484.9275 81.839469 483.142344 83.620719 480.943125 83.620719 Z M 480.943125 83.620719 " transform="matrix(1, 0, 0, -1, 23.76, 105.484)"/>
<path fill-rule="nonzero" fill="rgb(100%, 100%, 100%)" fill-opacity="1" d="M 427.191406 26.566406 L 441.164062 26.566406 L 441.164062 7.96875 L 427.191406 7.96875 Z M 427.191406 26.566406 "/>
<g fill="rgb(0%, 0%, 0%)" fill-opacity="1">
<use xlink:href="#glyph-0-2" x="430.506" y="19.659"/>
</g>
<path fill="none" stroke-width="0.3985" stroke-linecap="butt" stroke-linejoin="miter" stroke="rgb(50%, 50%, 50%)" stroke-opacity="1" stroke-miterlimit="10" d="M 129.443125 -72.285531 L -11.607656 -72.285531 C -13.806875 -72.285531 -15.592031 -74.070687 -15.592031 -76.269906 L -15.592031 -167.512094 C -15.592031 -169.715219 -13.806875 -171.496469 -11.607656 -171.496469 L 129.443125 -171.496469 C 131.642344 -171.496469 133.4275 -169.715219 133.4275 -167.512094 L 133.4275 -76.269906 C 133.4275 -74.070687 131.642344 -72.285531 129.443125 -72.285531 Z M 129.443125 -72.285531 " transform="matrix(1, 0, 0, -1, 23.76, 105.484)"/>
<path fill-rule="nonzero" fill="rgb(100%, 100%, 100%)" fill-opacity="1" d="M 75.449219 290.875 L 89.90625 290.875 L 89.90625 272.277344 L 75.449219 272.277344 Z M 75.449219 290.875 "/>
<g fill="rgb(0%, 0%, 0%)" fill-opacity="1">
<use xlink:href="#glyph-0-3" x="78.768" y="283.966"/>
</g>
<path fill="none" stroke-width="0.3985" stroke-linecap="butt" stroke-linejoin="miter" stroke="rgb(50%, 50%, 50%)" stroke-opacity="1" stroke-miterlimit="10" d="M 305.193125 -72.285531 L 164.14625 -72.285531 C 161.943125 -72.285531 160.157969 -74.070687 160.157969 -76.269906 L 160.157969 -167.512094 C 160.157969 -169.715219 161.943125 -171.496469 164.14625 -171.496469 L 305.193125 -171.496469 C 307.392344 -171.496469 309.1775 -169.715219 309.1775 -167.512094 L 309.1775 -76.269906 C 309.1775 -74.070687 307.392344 -72.285531 305.193125 -72.285531 Z M 305.193125 -72.285531 " transform="matrix(1, 0, 0, -1, 23.76, 105.484)"/>
<path fill-rule="nonzero" fill="rgb(100%, 100%, 100%)" fill-opacity="1" d="M 251.300781 290.875 L 265.554688 290.875 L 265.554688 272.277344 L 251.300781 272.277344 Z M 251.300781 290.875 "/>
<g fill="rgb(0%, 0%, 0%)" fill-opacity="1">
<use xlink:href="#glyph-0-4" x="254.62" y="283.966"/>
</g>
<path fill="none" stroke-width="0.3985" stroke-linecap="butt" stroke-linejoin="miter" stroke="rgb(50%, 50%, 50%)" stroke-opacity="1" stroke-miterlimit="10" d="M 480.943125 -72.285531 L 339.89625 -72.285531 C 337.693125 -72.285531 335.907969 -74.070687 335.907969 -76.269906 L 335.907969 -167.512094 C 335.907969 -169.715219 337.693125 -171.496469 339.89625 -171.496469 L 480.943125 -171.496469 C 483.142344 -171.496469 484.9275 -169.715219 484.9275 -167.512094 L 484.9275 -76.269906 C 484.9275 -74.070687 483.142344 -72.285531 480.943125 -72.285531 Z M 480.943125 -72.285531 " transform="matrix(1, 0, 0, -1, 23.76, 105.484)"/>
<path fill-rule="nonzero" fill="rgb(100%, 100%, 100%)" fill-opacity="1" d="M 427.121094 290.875 L 441.234375 290.875 L 441.234375 272.277344 L 427.121094 272.277344 Z M 427.121094 290.875 "/>
<g fill="rgb(0%, 0%, 0%)" fill-opacity="1">
<use xlink:href="#glyph-0-5" x="430.437" y="283.966"/>
</g>
<path fill="none" stroke-width="0.99628" stroke-linecap="butt" stroke-linejoin="miter" stroke="rgb(0%, 0%, 0%)" stroke-opacity="1" stroke-miterlimit="10" d="M 29.45875 17.007438 L 29.45875 51.023063 " transform="matrix(1, 0, 0, -1, 23.76, 105.484)"/>
<path fill="none" stroke-width="1.99255" stroke-linecap="butt" stroke-linejoin="miter" stroke="rgb(75%, 0%, 0%)" stroke-opacity="1" stroke-miterlimit="10" d="M 58.915781 -0.000375 L 58.20875 -1.226937 L 28.751719 15.780875 " transform="matrix(1, 0, 0, -1, 23.76, 105.484)"/>
<path fill="none" stroke-width="0.99628" stroke-linecap="butt" stroke-linejoin="miter" stroke="rgb(0%, 0%, 0%)" stroke-opacity="1" stroke-miterlimit="10" d="M 58.915781 -0.000375 L 59.626719 1.226188 L 30.165781 18.234 " transform="matrix(1, 0, 0, -1, 23.76, 105.484)"/>
<path fill="none" stroke-width="1.99255" stroke-linecap="butt" stroke-linejoin="miter" stroke="rgb(75%, 0%, 0%)" stroke-opacity="1" stroke-miterlimit="10" d="M 29.45875 51.023063 L 28.751719 52.249625 L 58.20875 69.257438 " transform="matrix(1, 0, 0, -1, 23.76, 105.484)"/>
<path fill="none" stroke-width="0.99628" stroke-linecap="butt" stroke-linejoin="miter" stroke="rgb(0%, 0%, 0%)" stroke-opacity="1" stroke-miterlimit="10" d="M 29.45875 51.023063 L 30.165781 49.7965 L 59.626719 66.804313 " transform="matrix(1, 0, 0, -1, 23.76, 105.484)"/>
<path fill="none" stroke-width="1.99255" stroke-linecap="butt" stroke-linejoin="miter" stroke="rgb(75%, 0%, 0%)" stroke-opacity="1" stroke-miterlimit="10" d="M 88.376719 17.007438 L 86.95875 17.007438 L 86.95875 51.023063 " transform="matrix(1, 0, 0, -1, 23.76, 105.484)"/>
<path fill="none" stroke-width="0.99628" stroke-linecap="butt" stroke-linejoin="miter" stroke="rgb(0%, 0%, 0%)" stroke-opacity="1" stroke-miterlimit="10" d="M 88.376719 17.007438 L 89.794688 17.007438 L 89.794688 51.023063 " transform="matrix(1, 0, 0, -1, 23.76, 105.484)"/>
<path fill-rule="nonzero" fill="rgb(100%, 100%, 100%)" fill-opacity="1" stroke-width="0.3985" stroke-linecap="butt" stroke-linejoin="miter" stroke="rgb(0%, 0%, 0%)" stroke-opacity="1" stroke-miterlimit="10" d="M 65.892344 -0.000375 C 65.892344 3.851188 62.77125 6.972281 58.915781 6.972281 C 55.064219 6.972281 51.943125 3.851188 51.943125 -0.000375 C 51.943125 -3.851937 55.064219 -6.973031 58.915781 -6.973031 C 62.77125 -6.973031 65.892344 -3.851937 65.892344 -0.000375 Z M 65.892344 -0.000375 " transform="matrix(1, 0, 0, -1, 23.76, 105.484)"/>
<g fill="rgb(0%, 0%, 0%)" fill-opacity="1">
<use xlink:href="#glyph-0-6" x="80.186" y="108.694"/>
</g>
<path fill-rule="nonzero" fill="rgb(100%, 100%, 100%)" fill-opacity="1" stroke-width="0.3985" stroke-linecap="butt" stroke-linejoin="miter" stroke="rgb(0%, 0%, 0%)" stroke-opacity="1" stroke-miterlimit="10" d="M 36.431406 17.007438 C 36.431406 20.859 33.310313 23.980094 29.45875 23.980094 C 25.607188 23.980094 22.486094 20.859 22.486094 17.007438 C 22.486094 13.155875 25.607188 10.034781 29.45875 10.034781 C 33.310313 10.034781 36.431406 13.155875 36.431406 17.007438 Z M 36.431406 17.007438 " transform="matrix(1, 0, 0, -1, 23.76, 105.484)"/>
<g fill="rgb(0%, 0%, 0%)" fill-opacity="1">
<use xlink:href="#glyph-0-7" x="50.728" y="91.687"/>
</g>
<path fill-rule="nonzero" fill="rgb(100%, 100%, 100%)" fill-opacity="1" stroke-width="0.3985" stroke-linecap="butt" stroke-linejoin="miter" stroke="rgb(0%, 0%, 0%)" stroke-opacity="1" stroke-miterlimit="10" d="M 36.431406 51.023063 C 36.431406 54.874625 33.310313 57.999625 29.45875 57.999625 C 25.607188 57.999625 22.486094 54.874625 22.486094 51.023063 C 22.486094 47.1715 25.607188 44.050406 29.45875 44.050406 C 33.310313 44.050406 36.431406 47.1715 36.431406 51.023063 Z M 36.431406 51.023063 " transform="matrix(1, 0, 0, -1, 23.76, 105.484)"/>
<g fill="rgb(0%, 0%, 0%)" fill-opacity="1">
<use xlink:href="#glyph-0-8" x="50.728" y="57.671"/>
</g>
<path fill-rule="nonzero" fill="rgb(100%, 100%, 100%)" fill-opacity="1" stroke-width="0.3985" stroke-linecap="butt" stroke-linejoin="miter" stroke="rgb(0%, 0%, 0%)" stroke-opacity="1" stroke-miterlimit="10" d="M 65.892344 68.030875 C 65.892344 71.882438 62.77125 75.007438 58.915781 75.007438 C 55.064219 75.007438 51.943125 71.882438 51.943125 68.030875 C 51.943125 64.179313 55.064219 61.058219 58.915781 61.058219 C 62.77125 61.058219 65.892344 64.179313 65.892344 68.030875 Z M 65.892344 68.030875 " transform="matrix(1, 0, 0, -1, 23.76, 105.484)"/>
<g fill="rgb(0%, 0%, 0%)" fill-opacity="1">
<use xlink:href="#glyph-0-9" x="80.186" y="40.663"/>
</g>
<path fill-rule="nonzero" fill="rgb(100%, 100%, 100%)" fill-opacity="1" stroke-width="0.3985" stroke-linecap="butt" stroke-linejoin="miter" stroke="rgb(0%, 0%, 0%)" stroke-opacity="1" stroke-miterlimit="10" d="M 95.349375 17.007438 C 95.349375 20.859 92.228281 23.980094 88.376719 23.980094 C 84.525156 23.980094 81.404063 20.859 81.404063 17.007438 C 81.404063 13.155875 84.525156 10.034781 88.376719 10.034781 C 92.228281 10.034781 95.349375 13.155875 95.349375 17.007438 Z M 95.349375 17.007438 " transform="matrix(1, 0, 0, -1, 23.76, 105.484)"/>
<g fill="rgb(0%, 0%, 0%)" fill-opacity="1">
<use xlink:href="#glyph-0-10" x="109.645" y="91.687"/>
</g>
<path fill-rule="nonzero" fill="rgb(100%, 100%, 100%)" fill-opacity="1" stroke-width="0.3985" stroke-linecap="butt" stroke-linejoin="miter" stroke="rgb(0%, 0%, 0%)" stroke-opacity="1" stroke-miterlimit="10" d="M 95.349375 51.023063 C 95.349375 54.874625 92.228281 57.999625 88.376719 57.999625 C 84.525156 57.999625 81.404063 54.874625 81.404063 51.023063 C 81.404063 47.1715 84.525156 44.050406 88.376719 44.050406 C 92.228281 44.050406 95.349375 47.1715 95.349375 51.023063 Z M 95.349375 51.023063 " transform="matrix(1, 0, 0, -1, 23.76, 105.484)"/>
<g fill="rgb(0%, 0%, 0%)" fill-opacity="1">
<use xlink:href="#glyph-0-11" x="109.645" y="57.671"/>
</g>
<path fill="none" stroke-width="2.98883" stroke-linecap="butt" stroke-linejoin="miter" stroke="rgb(67.498779%, 67.498779%, 67.498779%)" stroke-opacity="1" stroke-miterlimit="10" d="M 264.126719 17.007438 L 264.126719 51.023063 " transform="matrix(1, 0, 0, -1, 23.76, 105.484)"/>
<path fill="none" stroke-width="2.98883" stroke-linecap="butt" stroke-linejoin="miter" stroke="rgb(67.498779%, 67.498779%, 67.498779%)" stroke-opacity="1" stroke-miterlimit="10" d="M 234.669688 68.030875 L 205.20875 51.023063 " transform="matrix(1, 0, 0, -1, 23.76, 105.484)"/>
<path fill="none" stroke-width="2.98883" stroke-linecap="butt" stroke-linejoin="miter" stroke="rgb(67.498779%, 67.498779%, 67.498779%)" stroke-opacity="1" stroke-miterlimit="10" d="M 205.20875 51.023063 L 205.20875 17.007438 " transform="matrix(1, 0, 0, -1, 23.76, 105.484)"/>
<path fill="none" stroke-width="2.98883" stroke-linecap="butt" stroke-linejoin="miter" stroke="rgb(67.498779%, 67.498779%, 67.498779%)" stroke-opacity="1" stroke-miterlimit="10" d="M 205.20875 17.007438 L 234.669688 -0.000375 " transform="matrix(1, 0, 0, -1, 23.76, 105.484)"/>
<path fill-rule="nonzero" fill="rgb(93.998718%, 93.998718%, 93.998718%)" fill-opacity="1" stroke-width="0.3985" stroke-linecap="butt" stroke-linejoin="miter" stroke="rgb(0%, 0%, 0%)" stroke-opacity="1" stroke-miterlimit="10" d="M 241.642344 -0.000375 C 241.642344 3.851188 238.52125 6.972281 234.669688 6.972281 C 230.818125 6.972281 227.693125 3.851188 227.693125 -0.000375 C 227.693125 -3.851937 230.818125 -6.973031 234.669688 -6.973031 C 238.52125 -6.973031 241.642344 -3.851937 241.642344 -0.000375 Z M 241.642344 -0.000375 " transform="matrix(1, 0, 0, -1, 23.76, 105.484)"/>
<g fill="rgb(0%, 0%, 0%)" fill-opacity="1">
<use xlink:href="#glyph-0-6" x="255.934" y="108.694"/>
</g>
<path fill-rule="nonzero" fill="rgb(93.998718%, 93.998718%, 93.998718%)" fill-opacity="1" stroke-width="0.3985" stroke-linecap="butt" stroke-linejoin="miter" stroke="rgb(0%, 0%, 0%)" stroke-opacity="1" stroke-miterlimit="10" d="M 212.181406 17.007438 C 212.181406 20.859 209.060313 23.980094 205.20875 23.980094 C 201.357188 23.980094 198.236094 20.859 198.236094 17.007438 C 198.236094 13.155875 201.357188 10.034781 205.20875 10.034781 C 209.060313 10.034781 212.181406 13.155875 212.181406 17.007438 Z M 212.181406 17.007438 " transform="matrix(1, 0, 0, -1, 23.76, 105.484)"/>
<g fill="rgb(0%, 0%, 0%)" fill-opacity="1">
<use xlink:href="#glyph-0-7" x="226.476" y="91.687"/>
</g>
<path fill-rule="nonzero" fill="rgb(93.998718%, 93.998718%, 93.998718%)" fill-opacity="1" stroke-width="0.3985" stroke-linecap="butt" stroke-linejoin="miter" stroke="rgb(0%, 0%, 0%)" stroke-opacity="1" stroke-miterlimit="10" d="M 212.181406 51.023063 C 212.181406 54.874625 209.060313 57.999625 205.20875 57.999625 C 201.357188 57.999625 198.236094 54.874625 198.236094 51.023063 C 198.236094 47.1715 201.357188 44.050406 205.20875 44.050406 C 209.060313 44.050406 212.181406 47.1715 212.181406 51.023063 Z M 212.181406 51.023063 " transform="matrix(1, 0, 0, -1, 23.76, 105.484)"/>
<g fill="rgb(0%, 0%, 0%)" fill-opacity="1">
<use xlink:href="#glyph-0-8" x="226.476" y="57.671"/>
</g>
<path fill-rule="nonzero" fill="rgb(93.998718%, 93.998718%, 93.998718%)" fill-opacity="1" stroke-width="0.3985" stroke-linecap="butt" stroke-linejoin="miter" stroke="rgb(0%, 0%, 0%)" stroke-opacity="1" stroke-miterlimit="10" d="M 241.642344 68.030875 C 241.642344 71.882438 238.52125 75.007438 234.669688 75.007438 C 230.818125 75.007438 227.693125 71.882438 227.693125 68.030875 C 227.693125 64.179313 230.818125 61.058219 234.669688 61.058219 C 238.52125 61.058219 241.642344 64.179313 241.642344 68.030875 Z M 241.642344 68.030875 " transform="matrix(1, 0, 0, -1, 23.76, 105.484)"/>
<g fill="rgb(0%, 0%, 0%)" fill-opacity="1">
<use xlink:href="#glyph-0-9" x="255.934" y="40.663"/>
</g>
<path fill-rule="nonzero" fill="rgb(93.998718%, 93.998718%, 93.998718%)" fill-opacity="1" stroke-width="0.3985" stroke-linecap="butt" stroke-linejoin="miter" stroke="rgb(0%, 0%, 0%)" stroke-opacity="1" stroke-miterlimit="10" d="M 271.099375 17.007438 C 271.099375 20.859 267.978281 23.980094 264.126719 23.980094 C 260.275156 23.980094 257.154063 20.859 257.154063 17.007438 C 257.154063 13.155875 260.275156 10.034781 264.126719 10.034781 C 267.978281 10.034781 271.099375 13.155875 271.099375 17.007438 Z M 271.099375 17.007438 " transform="matrix(1, 0, 0, -1, 23.76, 105.484)"/>
<g fill="rgb(0%, 0%, 0%)" fill-opacity="1">
<use xlink:href="#glyph-0-10" x="285.393" y="91.687"/>
</g>
<path fill-rule="nonzero" fill="rgb(93.998718%, 93.998718%, 93.998718%)" fill-opacity="1" stroke-width="0.3985" stroke-linecap="butt" stroke-linejoin="miter" stroke="rgb(0%, 0%, 0%)" stroke-opacity="1" stroke-miterlimit="10" d="M 271.099375 51.023063 C 271.099375 54.874625 267.978281 57.999625 264.126719 57.999625 C 260.275156 57.999625 257.154063 54.874625 257.154063 51.023063 C 257.154063 47.1715 260.275156 44.050406 264.126719 44.050406 C 267.978281 44.050406 271.099375 47.1715 271.099375 51.023063 Z M 271.099375 51.023063 " transform="matrix(1, 0, 0, -1, 23.76, 105.484)"/>
<g fill="rgb(0%, 0%, 0%)" fill-opacity="1">
<use xlink:href="#glyph-0-11" x="285.393" y="57.671"/>
</g>
<path fill="none" stroke-width="0.99628" stroke-linecap="butt" stroke-linejoin="miter" stroke="rgb(0%, 0%, 0%)" stroke-opacity="1" stroke-miterlimit="10" d="M 380.95875 17.007438 L 410.419688 -0.000375 " transform="matrix(1, 0, 0, -1, 23.76, 105.484)"/>
<path fill="none" stroke-width="1.99255" stroke-linecap="butt" stroke-linejoin="miter" stroke="rgb(0%, 54.998779%, 0%)" stroke-opacity="1" stroke-miterlimit="10" d="M 410.419688 -0.000375 L 439.876719 17.007438 " transform="matrix(1, 0, 0, -1, 23.76, 105.484)"/>
<path fill="none" stroke-width="0.99628" stroke-linecap="butt" stroke-linejoin="miter" stroke="rgb(0%, 0%, 0%)" stroke-opacity="1" stroke-miterlimit="10" d="M 439.876719 17.007438 L 439.876719 51.023063 " transform="matrix(1, 0, 0, -1, 23.76, 105.484)"/>
<path fill="none" stroke-width="1.99255" stroke-linecap="butt" stroke-linejoin="miter" stroke="rgb(0%, 54.998779%, 0%)" stroke-opacity="1" stroke-miterlimit="10" d="M 439.876719 51.023063 L 410.419688 68.030875 " transform="matrix(1, 0, 0, -1, 23.76, 105.484)"/>
<path fill="none" stroke-width="0.99628" stroke-linecap="butt" stroke-linejoin="miter" stroke="rgb(0%, 0%, 0%)" stroke-opacity="1" stroke-miterlimit="10" d="M 410.419688 68.030875 L 380.95875 51.023063 " transform="matrix(1, 0, 0, -1, 23.76, 105.484)"/>
<path fill="none" stroke-width="1.99255" stroke-linecap="butt" stroke-linejoin="miter" stroke="rgb(0%, 54.998779%, 0%)" stroke-opacity="1" stroke-miterlimit="10" d="M 380.95875 17.007438 L 379.540781 17.007438 L 379.540781 51.023063 " transform="matrix(1, 0, 0, -1, 23.76, 105.484)"/>
<path fill="none" stroke-width="0.99628" stroke-linecap="butt" stroke-linejoin="miter" stroke="rgb(0%, 0%, 0%)" stroke-opacity="1" stroke-miterlimit="10" d="M 380.95875 17.007438 L 382.376719 17.007438 L 382.376719 51.023063 " transform="matrix(1, 0, 0, -1, 23.76, 105.484)"/>
<path fill-rule="nonzero" fill="rgb(100%, 100%, 100%)" fill-opacity="1" stroke-width="0.3985" stroke-linecap="butt" stroke-linejoin="miter" stroke="rgb(0%, 0%, 0%)" stroke-opacity="1" stroke-miterlimit="10" d="M 417.392344 -0.000375 C 417.392344 3.851188 414.27125 6.972281 410.419688 6.972281 C 406.568125 6.972281 403.443125 3.851188 403.443125 -0.000375 C 403.443125 -3.851937 406.568125 -6.973031 410.419688 -6.973031 C 414.27125 -6.973031 417.392344 -3.851937 417.392344 -0.000375 Z M 417.392344 -0.000375 " transform="matrix(1, 0, 0, -1, 23.76, 105.484)"/>
<g fill="rgb(0%, 0%, 0%)" fill-opacity="1">
<use xlink:href="#glyph-0-6" x="431.682" y="108.694"/>
</g>
<path fill-rule="nonzero" fill="rgb(100%, 100%, 100%)" fill-opacity="1" stroke-width="0.3985" stroke-linecap="butt" stroke-linejoin="miter" stroke="rgb(0%, 0%, 0%)" stroke-opacity="1" stroke-miterlimit="10" d="M 387.931406 17.007438 C 387.931406 20.859 384.810313 23.980094 380.95875 23.980094 C 377.107188 23.980094 373.986094 20.859 373.986094 17.007438 C 373.986094 13.155875 377.107188 10.034781 380.95875 10.034781 C 384.810313 10.034781 387.931406 13.155875 387.931406 17.007438 Z M 387.931406 17.007438 " transform="matrix(1, 0, 0, -1, 23.76, 105.484)"/>
<g fill="rgb(0%, 0%, 0%)" fill-opacity="1">
<use xlink:href="#glyph-0-7" x="402.224" y="91.687"/>
</g>
<path fill-rule="nonzero" fill="rgb(100%, 100%, 100%)" fill-opacity="1" stroke-width="0.3985" stroke-linecap="butt" stroke-linejoin="miter" stroke="rgb(0%, 0%, 0%)" stroke-opacity="1" stroke-miterlimit="10" d="M 387.931406 51.023063 C 387.931406 54.874625 384.810313 57.999625 380.95875 57.999625 C 377.107188 57.999625 373.986094 54.874625 373.986094 51.023063 C 373.986094 47.1715 377.107188 44.050406 380.95875 44.050406 C 384.810313 44.050406 387.931406 47.1715 387.931406 51.023063 Z M 387.931406 51.023063 " transform="matrix(1, 0, 0, -1, 23.76, 105.484)"/>
<g fill="rgb(0%, 0%, 0%)" fill-opacity="1">
<use xlink:href="#glyph-0-8" x="402.224" y="57.671"/>
</g>
<path fill-rule="nonzero" fill="rgb(100%, 100%, 100%)" fill-opacity="1" stroke-width="0.3985" stroke-linecap="butt" stroke-linejoin="miter" stroke="rgb(0%, 0%, 0%)" stroke-opacity="1" stroke-miterlimit="10" d="M 417.392344 68.030875 C 417.392344 71.882438 414.27125 75.007438 410.419688 75.007438 C 406.568125 75.007438 403.443125 71.882438 403.443125 68.030875 C 403.443125 64.179313 406.568125 61.058219 410.419688 61.058219 C 414.27125 61.058219 417.392344 64.179313 417.392344 68.030875 Z M 417.392344 68.030875 " transform="matrix(1, 0, 0, -1, 23.76, 105.484)"/>
<g fill="rgb(0%, 0%, 0%)" fill-opacity="1">
<use xlink:href="#glyph-0-9" x="431.682" y="40.663"/>
</g>
<path fill-rule="nonzero" fill="rgb(100%, 100%, 100%)" fill-opacity="1" stroke-width="0.3985" stroke-linecap="butt" stroke-linejoin="miter" stroke="rgb(0%, 0%, 0%)" stroke-opacity="1" stroke-miterlimit="10" d="M 446.849375 17.007438 C 446.849375 20.859 443.728281 23.980094 439.876719 23.980094 C 436.025156 23.980094 432.904063 20.859 432.904063 17.007438 C 432.904063 13.155875 436.025156 10.034781 439.876719 10.034781 C 443.728281 10.034781 446.849375 13.155875 446.849375 17.007438 Z M 446.849375 17.007438 " transform="matrix(1, 0, 0, -1, 23.76, 105.484)"/>
<g fill="rgb(0%, 0%, 0%)" fill-opacity="1">
<use xlink:href="#glyph-0-10" x="461.141" y="91.687"/>
</g>
<path fill-rule="nonzero" fill="rgb(100%, 100%, 100%)" fill-opacity="1" stroke-width="0.3985" stroke-linecap="butt" stroke-linejoin="miter" stroke="rgb(0%, 0%, 0%)" stroke-opacity="1" stroke-miterlimit="10" d="M 446.849375 51.023063 C 446.849375 54.874625 443.728281 57.999625 439.876719 57.999625 C 436.025156 57.999625 432.904063 54.874625 432.904063 51.023063 C 432.904063 47.1715 436.025156 44.050406 439.876719 44.050406 C 443.728281 44.050406 446.849375 47.1715 446.849375 51.023063 Z M 446.849375 51.023063 " transform="matrix(1, 0, 0, -1, 23.76, 105.484)"/>
<g fill="rgb(0%, 0%, 0%)" fill-opacity="1">
<use xlink:href="#glyph-0-11" x="461.141" y="57.671"/>
</g>
<path fill="none" stroke-width="0.99628" stroke-linecap="butt" stroke-linejoin="miter" stroke="rgb(0%, 0%, 0%)" stroke-opacity="1" stroke-miterlimit="10" d="M 0.00171875 -155.906625 L 29.45875 -138.898812 L 29.45875 -104.883187 " transform="matrix(1, 0, 0, -1, 23.76, 105.484)"/>
<path fill="none" stroke-width="0.99628" stroke-linecap="butt" stroke-linejoin="miter" stroke="rgb(0%, 0%, 0%)" stroke-opacity="1" stroke-miterlimit="10" d="M 88.376719 -104.883187 L 117.83375 -87.875375 " transform="matrix(1, 0, 0, -1, 23.76, 105.484)"/>
<path fill="none" stroke-width="1.99255" stroke-linecap="butt" stroke-linejoin="miter" stroke="rgb(75%, 0%, 0%)" stroke-opacity="1" stroke-miterlimit="10" d="M 58.915781 -155.906625 L 58.20875 -157.133187 L 28.751719 -140.125375 " transform="matrix(1, 0, 0, -1, 23.76, 105.484)"/>
<path fill="none" stroke-width="0.99628" stroke-linecap="butt" stroke-linejoin="miter" stroke="rgb(0%, 0%, 0%)" stroke-opacity="1" stroke-miterlimit="10" d="M 58.915781 -155.906625 L 59.626719 -154.680062 L 30.165781 -137.67225 " transform="matrix(1, 0, 0, -1, 23.76, 105.484)"/>
<path fill="none" stroke-width="1.99255" stroke-linecap="butt" stroke-linejoin="miter" stroke="rgb(75%, 0%, 0%)" stroke-opacity="1" stroke-miterlimit="10" d="M 29.45875 -104.883187 L 28.751719 -103.656625 L 58.20875 -86.648812 " transform="matrix(1, 0, 0, -1, 23.76, 105.484)"/>
<path fill="none" stroke-width="0.99628" stroke-linecap="butt" stroke-linejoin="miter" stroke="rgb(0%, 0%, 0%)" stroke-opacity="1" stroke-miterlimit="10" d="M 29.45875 -104.883187 L 30.165781 -106.10975 L 59.626719 -89.101937 " transform="matrix(1, 0, 0, -1, 23.76, 105.484)"/>
<path fill="none" stroke-width="1.99255" stroke-linecap="butt" stroke-linejoin="miter" stroke="rgb(75%, 0%, 0%)" stroke-opacity="1" stroke-miterlimit="10" d="M 88.376719 -138.898812 L 86.95875 -138.898812 L 86.95875 -104.883187 " transform="matrix(1, 0, 0, -1, 23.76, 105.484)"/>
<path fill="none" stroke-width="0.99628" stroke-linecap="butt" stroke-linejoin="miter" stroke="rgb(0%, 0%, 0%)" stroke-opacity="1" stroke-miterlimit="10" d="M 88.376719 -138.898812 L 89.794688 -138.898812 L 89.794688 -104.883187 " transform="matrix(1, 0, 0, -1, 23.76, 105.484)"/>
<path fill-rule="nonzero" fill="rgb(100%, 100%, 100%)" fill-opacity="1" stroke-width="0.3985" stroke-linecap="butt" stroke-linejoin="miter" stroke="rgb(0%, 0%, 0%)" stroke-opacity="1" stroke-miterlimit="10" d="M 65.892344 -155.906625 C 65.892344 -152.055062 62.77125 -148.933969 58.915781 -148.933969 C 55.064219 -148.933969 51.943125 -152.055062 51.943125 -155.906625 C 51.943125 -159.758187 55.064219 -162.883187 58.915781 -162.883187 C 62.77125 -162.883187 65.892344 -159.758187 65.892344 -155.906625 Z M 65.892344 -155.906625 " transform="matrix(1, 0, 0, -1, 23.76, 105.484)"/>
<g fill="rgb(0%, 0%, 0%)" fill-opacity="1">
<use xlink:href="#glyph-0-6" x="80.186" y="264.6"/>
</g>
<path fill-rule="nonzero" fill="rgb(100%, 100%, 100%)" fill-opacity="1" stroke-width="0.3985" stroke-linecap="butt" stroke-linejoin="miter" stroke="rgb(0%, 0%, 0%)" stroke-opacity="1" stroke-miterlimit="10" d="M 36.431406 -138.898812 C 36.431406 -135.04725 33.310313 -131.926156 29.45875 -131.926156 C 25.607188 -131.926156 22.486094 -135.04725 22.486094 -138.898812 C 22.486094 -142.750375 25.607188 -145.875375 29.45875 -145.875375 C 33.310313 -145.875375 36.431406 -142.750375 36.431406 -138.898812 Z M 36.431406 -138.898812 " transform="matrix(1, 0, 0, -1, 23.76, 105.484)"/>
<g fill="rgb(0%, 0%, 0%)" fill-opacity="1">
<use xlink:href="#glyph-0-7" x="50.728" y="247.592"/>
</g>
<path fill-rule="nonzero" fill="rgb(100%, 100%, 100%)" fill-opacity="1" stroke-width="0.3985" stroke-linecap="butt" stroke-linejoin="miter" stroke="rgb(0%, 0%, 0%)" stroke-opacity="1" stroke-miterlimit="10" d="M 36.431406 -104.883187 C 36.431406 -101.031625 33.310313 -97.910531 29.45875 -97.910531 C 25.607188 -97.910531 22.486094 -101.031625 22.486094 -104.883187 C 22.486094 -108.73475 25.607188 -111.855844 29.45875 -111.855844 C 33.310313 -111.855844 36.431406 -108.73475 36.431406 -104.883187 Z M 36.431406 -104.883187 " transform="matrix(1, 0, 0, -1, 23.76, 105.484)"/>
<g fill="rgb(0%, 0%, 0%)" fill-opacity="1">
<use xlink:href="#glyph-0-8" x="50.728" y="213.576"/>
</g>
<path fill-rule="nonzero" fill="rgb(100%, 100%, 100%)" fill-opacity="1" stroke-width="0.3985" stroke-linecap="butt" stroke-linejoin="miter" stroke="rgb(0%, 0%, 0%)" stroke-opacity="1" stroke-miterlimit="10" d="M 65.892344 -87.875375 C 65.892344 -84.023812 62.77125 -80.902719 58.915781 -80.902719 C 55.064219 -80.902719 51.943125 -84.023812 51.943125 -87.875375 C 51.943125 -91.726937 55.064219 -94.848031 58.915781 -94.848031 C 62.77125 -94.848031 65.892344 -91.726937 65.892344 -87.875375 Z M 65.892344 -87.875375 " transform="matrix(1, 0, 0, -1, 23.76, 105.484)"/>
<g fill="rgb(0%, 0%, 0%)" fill-opacity="1">
<use xlink:href="#glyph-0-9" x="80.186" y="196.569"/>
</g>
<path fill-rule="nonzero" fill="rgb(100%, 100%, 100%)" fill-opacity="1" stroke-width="0.3985" stroke-linecap="butt" stroke-linejoin="miter" stroke="rgb(0%, 0%, 0%)" stroke-opacity="1" stroke-miterlimit="10" d="M 6.974375 -155.906625 C 6.974375 -152.055062 3.853281 -148.933969 0.00171875 -148.933969 C -3.849844 -148.933969 -6.974844 -152.055062 -6.974844 -155.906625 C -6.974844 -159.758187 -3.849844 -162.883187 0.00171875 -162.883187 C 3.853281 -162.883187 6.974375 -159.758187 6.974375 -155.906625 Z M 6.974375 -155.906625 " transform="matrix(1, 0, 0, -1, 23.76, 105.484)"/>
<g fill="rgb(0%, 0%, 0%)" fill-opacity="1">
<use xlink:href="#glyph-0-12" x="21.269" y="264.6"/>
</g>
<path fill-rule="nonzero" fill="rgb(100%, 100%, 100%)" fill-opacity="1" stroke-width="0.3985" stroke-linecap="butt" stroke-linejoin="miter" stroke="rgb(0%, 0%, 0%)" stroke-opacity="1" stroke-miterlimit="10" d="M 95.349375 -138.898812 C 95.349375 -135.04725 92.228281 -131.926156 88.376719 -131.926156 C 84.525156 -131.926156 81.404063 -135.04725 81.404063 -138.898812 C 81.404063 -142.750375 84.525156 -145.875375 88.376719 -145.875375 C 92.228281 -145.875375 95.349375 -142.750375 95.349375 -138.898812 Z M 95.349375 -138.898812 " transform="matrix(1, 0, 0, -1, 23.76, 105.484)"/>
<g fill="rgb(0%, 0%, 0%)" fill-opacity="1">
<use xlink:href="#glyph-0-10" x="109.645" y="247.592"/>
</g>
<path fill-rule="nonzero" fill="rgb(100%, 100%, 100%)" fill-opacity="1" stroke-width="0.3985" stroke-linecap="butt" stroke-linejoin="miter" stroke="rgb(0%, 0%, 0%)" stroke-opacity="1" stroke-miterlimit="10" d="M 95.349375 -104.883187 C 95.349375 -101.031625 92.228281 -97.910531 88.376719 -97.910531 C 84.525156 -97.910531 81.404063 -101.031625 81.404063 -104.883187 C 81.404063 -108.73475 84.525156 -111.855844 88.376719 -111.855844 C 92.228281 -111.855844 95.349375 -108.73475 95.349375 -104.883187 Z M 95.349375 -104.883187 " transform="matrix(1, 0, 0, -1, 23.76, 105.484)"/>
<g fill="rgb(0%, 0%, 0%)" fill-opacity="1">
<use xlink:href="#glyph-0-11" x="109.645" y="213.576"/>
</g>
<path fill-rule="nonzero" fill="rgb(100%, 100%, 100%)" fill-opacity="1" stroke-width="0.3985" stroke-linecap="butt" stroke-linejoin="miter" stroke="rgb(0%, 0%, 0%)" stroke-opacity="1" stroke-miterlimit="10" d="M 124.810313 -87.875375 C 124.810313 -84.023812 121.685313 -80.902719 117.83375 -80.902719 C 113.982188 -80.902719 110.861094 -84.023812 110.861094 -87.875375 C 110.861094 -91.726937 113.982188 -94.848031 117.83375 -94.848031 C 121.685313 -94.848031 124.810313 -91.726937 124.810313 -87.875375 Z M 124.810313 -87.875375 " transform="matrix(1, 0, 0, -1, 23.76, 105.484)"/>
<g fill="rgb(0%, 0%, 0%)" fill-opacity="1">
<use xlink:href="#glyph-0-13" x="139.103" y="196.569"/>
</g>
<path fill="none" stroke-width="2.98883" stroke-linecap="butt" stroke-linejoin="miter" stroke="rgb(67.498779%, 67.498779%, 67.498779%)" stroke-opacity="1" stroke-miterlimit="10" d="M 264.126719 -138.898812 L 264.126719 -104.883187 " transform="matrix(1, 0, 0, -1, 23.76, 105.484)"/>
<path fill="none" stroke-width="2.98883" stroke-linecap="butt" stroke-linejoin="miter" stroke="rgb(67.498779%, 67.498779%, 67.498779%)" stroke-opacity="1" stroke-miterlimit="10" d="M 234.669688 -87.875375 L 205.20875 -104.883187 " transform="matrix(1, 0, 0, -1, 23.76, 105.484)"/>
<path fill="none" stroke-width="2.98883" stroke-linecap="butt" stroke-linejoin="miter" stroke="rgb(67.498779%, 67.498779%, 67.498779%)" stroke-opacity="1" stroke-miterlimit="10" d="M 205.20875 -104.883187 L 205.20875 -138.898812 " transform="matrix(1, 0, 0, -1, 23.76, 105.484)"/>
<g clip-path="url(#clip-0)">
<path fill="none" stroke-width="2.98883" stroke-linecap="butt" stroke-linejoin="miter" stroke="rgb(67.498779%, 67.498779%, 67.498779%)" stroke-opacity="1" stroke-miterlimit="10" d="M 205.20875 -138.898812 L 234.669688 -155.906625 " transform="matrix(1, 0, 0, -1, 23.76, 105.484)"/>
</g>
<path fill="none" stroke-width="0.99628" stroke-linecap="butt" stroke-linejoin="miter" stroke="rgb(0%, 0%, 0%)" stroke-opacity="1" stroke-miterlimit="10" d="M 175.751719 -155.906625 L 205.20875 -138.898812 " transform="matrix(1, 0, 0, -1, 23.76, 105.484)"/>
<path fill="none" stroke-width="0.99628" stroke-linecap="butt" stroke-linejoin="miter" stroke="rgb(0%, 0%, 0%)" stroke-opacity="1" stroke-miterlimit="10" d="M 264.126719 -104.883187 L 293.58375 -87.875375 " transform="matrix(1, 0, 0, -1, 23.76, 105.484)"/>
<path fill-rule="nonzero" fill="rgb(93.998718%, 93.998718%, 93.998718%)" fill-opacity="1" stroke-width="0.3985" stroke-linecap="butt" stroke-linejoin="miter" stroke="rgb(0%, 0%, 0%)" stroke-opacity="1" stroke-miterlimit="10" d="M 241.642344 -155.906625 C 241.642344 -152.055062 238.52125 -148.933969 234.669688 -148.933969 C 230.818125 -148.933969 227.693125 -152.055062 227.693125 -155.906625 C 227.693125 -159.758187 230.818125 -162.883187 234.669688 -162.883187 C 238.52125 -162.883187 241.642344 -159.758187 241.642344 -155.906625 Z M 241.642344 -155.906625 " transform="matrix(1, 0, 0, -1, 23.76, 105.484)"/>
<g fill="rgb(0%, 0%, 0%)" fill-opacity="1">
<use xlink:href="#glyph-0-6" x="255.934" y="264.6"/>
</g>
<path fill-rule="nonzero" fill="rgb(93.998718%, 93.998718%, 93.998718%)" fill-opacity="1" stroke-width="0.3985" stroke-linecap="butt" stroke-linejoin="miter" stroke="rgb(0%, 0%, 0%)" stroke-opacity="1" stroke-miterlimit="10" d="M 212.181406 -138.898812 C 212.181406 -135.04725 209.060313 -131.926156 205.20875 -131.926156 C 201.357188 -131.926156 198.236094 -135.04725 198.236094 -138.898812 C 198.236094 -142.750375 201.357188 -145.875375 205.20875 -145.875375 C 209.060313 -145.875375 212.181406 -142.750375 212.181406 -138.898812 Z M 212.181406 -138.898812 " transform="matrix(1, 0, 0, -1, 23.76, 105.484)"/>
<g fill="rgb(0%, 0%, 0%)" fill-opacity="1">
<use xlink:href="#glyph-0-7" x="226.476" y="247.592"/>
</g>
<path fill-rule="nonzero" fill="rgb(93.998718%, 93.998718%, 93.998718%)" fill-opacity="1" stroke-width="0.3985" stroke-linecap="butt" stroke-linejoin="miter" stroke="rgb(0%, 0%, 0%)" stroke-opacity="1" stroke-miterlimit="10" d="M 212.181406 -104.883187 C 212.181406 -101.031625 209.060313 -97.910531 205.20875 -97.910531 C 201.357188 -97.910531 198.236094 -101.031625 198.236094 -104.883187 C 198.236094 -108.73475 201.357188 -111.855844 205.20875 -111.855844 C 209.060313 -111.855844 212.181406 -108.73475 212.181406 -104.883187 Z M 212.181406 -104.883187 " transform="matrix(1, 0, 0, -1, 23.76, 105.484)"/>
<g fill="rgb(0%, 0%, 0%)" fill-opacity="1">
<use xlink:href="#glyph-0-8" x="226.476" y="213.576"/>
</g>
<path fill-rule="nonzero" fill="rgb(93.998718%, 93.998718%, 93.998718%)" fill-opacity="1" stroke-width="0.3985" stroke-linecap="butt" stroke-linejoin="miter" stroke="rgb(0%, 0%, 0%)" stroke-opacity="1" stroke-miterlimit="10" d="M 241.642344 -87.875375 C 241.642344 -84.023812 238.52125 -80.902719 234.669688 -80.902719 C 230.818125 -80.902719 227.693125 -84.023812 227.693125 -87.875375 C 227.693125 -91.726937 230.818125 -94.848031 234.669688 -94.848031 C 238.52125 -94.848031 241.642344 -91.726937 241.642344 -87.875375 Z M 241.642344 -87.875375 " transform="matrix(1, 0, 0, -1, 23.76, 105.484)"/>
<g fill="rgb(0%, 0%, 0%)" fill-opacity="1">
<use xlink:href="#glyph-0-9" x="255.934" y="196.569"/>
</g>
<path fill-rule="nonzero" fill="rgb(93.998718%, 93.998718%, 93.998718%)" fill-opacity="1" stroke-width="0.3985" stroke-linecap="butt" stroke-linejoin="miter" stroke="rgb(0%, 0%, 0%)" stroke-opacity="1" stroke-miterlimit="10" d="M 182.724375 -155.906625 C 182.724375 -152.055062 179.603281 -148.933969 175.751719 -148.933969 C 171.900156 -148.933969 168.775156 -152.055062 168.775156 -155.906625 C 168.775156 -159.758187 171.900156 -162.883187 175.751719 -162.883187 C 179.603281 -162.883187 182.724375 -159.758187 182.724375 -155.906625 Z M 182.724375 -155.906625 " transform="matrix(1, 0, 0, -1, 23.76, 105.484)"/>
<g fill="rgb(0%, 0%, 0%)" fill-opacity="1">
<use xlink:href="#glyph-0-12" x="197.017" y="264.6"/>
</g>
<path fill-rule="nonzero" fill="rgb(93.998718%, 93.998718%, 93.998718%)" fill-opacity="1" stroke-width="0.3985" stroke-linecap="butt" stroke-linejoin="miter" stroke="rgb(0%, 0%, 0%)" stroke-opacity="1" stroke-miterlimit="10" d="M 271.099375 -138.898812 C 271.099375 -135.04725 267.978281 -131.926156 264.126719 -131.926156 C 260.275156 -131.926156 257.154063 -135.04725 257.154063 -138.898812 C 257.154063 -142.750375 260.275156 -145.875375 264.126719 -145.875375 C 267.978281 -145.875375 271.099375 -142.750375 271.099375 -138.898812 Z M 271.099375 -138.898812 " transform="matrix(1, 0, 0, -1, 23.76, 105.484)"/>
<g fill="rgb(0%, 0%, 0%)" fill-opacity="1">
<use xlink:href="#glyph-0-10" x="285.393" y="247.592"/>
</g>
<path fill-rule="nonzero" fill="rgb(93.998718%, 93.998718%, 93.998718%)" fill-opacity="1" stroke-width="0.3985" stroke-linecap="butt" stroke-linejoin="miter" stroke="rgb(0%, 0%, 0%)" stroke-opacity="1" stroke-miterlimit="10" d="M 271.099375 -104.883187 C 271.099375 -101.031625 267.978281 -97.910531 264.126719 -97.910531 C 260.275156 -97.910531 257.154063 -101.031625 257.154063 -104.883187 C 257.154063 -108.73475 260.275156 -111.855844 264.126719 -111.855844 C 267.978281 -111.855844 271.099375 -108.73475 271.099375 -104.883187 Z M 271.099375 -104.883187 " transform="matrix(1, 0, 0, -1, 23.76, 105.484)"/>
<g fill="rgb(0%, 0%, 0%)" fill-opacity="1">
<use xlink:href="#glyph-0-11" x="285.393" y="213.576"/>
</g>
<path fill-rule="nonzero" fill="rgb(93.998718%, 93.998718%, 93.998718%)" fill-opacity="1" stroke-width="0.3985" stroke-linecap="butt" stroke-linejoin="miter" stroke="rgb(0%, 0%, 0%)" stroke-opacity="1" stroke-miterlimit="10" d="M 300.560313 -87.875375 C 300.560313 -84.023812 297.435313 -80.902719 293.58375 -80.902719 C 289.732188 -80.902719 286.611094 -84.023812 286.611094 -87.875375 C 286.611094 -91.726937 289.732188 -94.848031 293.58375 -94.848031 C 297.435313 -94.848031 300.560313 -91.726937 300.560313 -87.875375 Z M 300.560313 -87.875375 " transform="matrix(1, 0, 0, -1, 23.76, 105.484)"/>
<g fill="rgb(0%, 0%, 0%)" fill-opacity="1">
<use xlink:href="#glyph-0-13" x="314.851" y="196.569"/>
</g>
<path fill="none" stroke-width="0.99628" stroke-linecap="butt" stroke-linejoin="miter" stroke="rgb(0%, 0%, 0%)" stroke-opacity="1" stroke-miterlimit="10" d="M 351.501719 -155.906625 L 380.95875 -138.898812 " transform="matrix(1, 0, 0, -1, 23.76, 105.484)"/>
<path fill="none" stroke-width="0.99628" stroke-linecap="butt" stroke-linejoin="miter" stroke="rgb(0%, 0%, 0%)" stroke-opacity="1" stroke-miterlimit="10" d="M 439.876719 -104.883187 L 469.337656 -87.875375 " transform="matrix(1, 0, 0, -1, 23.76, 105.484)"/>
<path fill="none" stroke-width="0.99628" stroke-linecap="butt" stroke-linejoin="miter" stroke="rgb(0%, 0%, 0%)" stroke-opacity="1" stroke-miterlimit="10" d="M 380.95875 -138.898812 L 410.419688 -155.906625 " transform="matrix(1, 0, 0, -1, 23.76, 105.484)"/>
<path fill="none" stroke-width="1.99255" stroke-linecap="butt" stroke-linejoin="miter" stroke="rgb(0%, 54.998779%, 0%)" stroke-opacity="1" stroke-miterlimit="10" d="M 410.419688 -155.906625 L 439.876719 -138.898812 " transform="matrix(1, 0, 0, -1, 23.76, 105.484)"/>
<path fill="none" stroke-width="0.99628" stroke-linecap="butt" stroke-linejoin="miter" stroke="rgb(0%, 0%, 0%)" stroke-opacity="1" stroke-miterlimit="10" d="M 439.876719 -138.898812 L 439.876719 -104.883187 " transform="matrix(1, 0, 0, -1, 23.76, 105.484)"/>
<path fill="none" stroke-width="1.99255" stroke-linecap="butt" stroke-linejoin="miter" stroke="rgb(0%, 54.998779%, 0%)" stroke-opacity="1" stroke-miterlimit="10" d="M 439.876719 -104.883187 L 410.419688 -87.875375 " transform="matrix(1, 0, 0, -1, 23.76, 105.484)"/>
<path fill="none" stroke-width="0.99628" stroke-linecap="butt" stroke-linejoin="miter" stroke="rgb(0%, 0%, 0%)" stroke-opacity="1" stroke-miterlimit="10" d="M 410.419688 -87.875375 L 380.95875 -104.883187 " transform="matrix(1, 0, 0, -1, 23.76, 105.484)"/>
<path fill="none" stroke-width="1.99255" stroke-linecap="butt" stroke-linejoin="miter" stroke="rgb(0%, 54.998779%, 0%)" stroke-opacity="1" stroke-miterlimit="10" d="M 380.95875 -138.898812 L 379.540781 -138.898812 L 379.540781 -104.883187 " transform="matrix(1, 0, 0, -1, 23.76, 105.484)"/>
<path fill="none" stroke-width="0.99628" stroke-linecap="butt" stroke-linejoin="miter" stroke="rgb(0%, 0%, 0%)" stroke-opacity="1" stroke-miterlimit="10" d="M 380.95875 -138.898812 L 382.376719 -138.898812 L 382.376719 -104.883187 " transform="matrix(1, 0, 0, -1, 23.76, 105.484)"/>
<path fill-rule="nonzero" fill="rgb(100%, 100%, 100%)" fill-opacity="1" stroke-width="0.3985" stroke-linecap="butt" stroke-linejoin="miter" stroke="rgb(0%, 0%, 0%)" stroke-opacity="1" stroke-miterlimit="10" d="M 417.392344 -155.906625 C 417.392344 -152.055062 414.27125 -148.933969 410.419688 -148.933969 C 406.568125 -148.933969 403.443125 -152.055062 403.443125 -155.906625 C 403.443125 -159.758187 406.568125 -162.883187 410.419688 -162.883187 C 414.27125 -162.883187 417.392344 -159.758187 417.392344 -155.906625 Z M 417.392344 -155.906625 " transform="matrix(1, 0, 0, -1, 23.76, 105.484)"/>
<g fill="rgb(0%, 0%, 0%)" fill-opacity="1">
<use xlink:href="#glyph-0-6" x="431.682" y="264.6"/>
</g>
<path fill-rule="nonzero" fill="rgb(100%, 100%, 100%)" fill-opacity="1" stroke-width="0.3985" stroke-linecap="butt" stroke-linejoin="miter" stroke="rgb(0%, 0%, 0%)" stroke-opacity="1" stroke-miterlimit="10" d="M 387.931406 -138.898812 C 387.931406 -135.04725 384.810313 -131.926156 380.95875 -131.926156 C 377.107188 -131.926156 373.986094 -135.04725 373.986094 -138.898812 C 373.986094 -142.750375 377.107188 -145.875375 380.95875 -145.875375 C 384.810313 -145.875375 387.931406 -142.750375 387.931406 -138.898812 Z M 387.931406 -138.898812 " transform="matrix(1, 0, 0, -1, 23.76, 105.484)"/>
<g fill="rgb(0%, 0%, 0%)" fill-opacity="1">
<use xlink:href="#glyph-0-7" x="402.224" y="247.592"/>
</g>
<path fill-rule="nonzero" fill="rgb(100%, 100%, 100%)" fill-opacity="1" stroke-width="0.3985" stroke-linecap="butt" stroke-linejoin="miter" stroke="rgb(0%, 0%, 0%)" stroke-opacity="1" stroke-miterlimit="10" d="M 387.931406 -104.883187 C 387.931406 -101.031625 384.810313 -97.910531 380.95875 -97.910531 C 377.107188 -97.910531 373.986094 -101.031625 373.986094 -104.883187 C 373.986094 -108.73475 377.107188 -111.855844 380.95875 -111.855844 C 384.810313 -111.855844 387.931406 -108.73475 387.931406 -104.883187 Z M 387.931406 -104.883187 " transform="matrix(1, 0, 0, -1, 23.76, 105.484)"/>
<g fill="rgb(0%, 0%, 0%)" fill-opacity="1">
<use xlink:href="#glyph-0-8" x="402.224" y="213.576"/>
</g>
<path fill-rule="nonzero" fill="rgb(100%, 100%, 100%)" fill-opacity="1" stroke-width="0.3985" stroke-linecap="butt" stroke-linejoin="miter" stroke="rgb(0%, 0%, 0%)" stroke-opacity="1" stroke-miterlimit="10" d="M 417.392344 -87.875375 C 417.392344 -84.023812 414.27125 -80.902719 410.419688 -80.902719 C 406.568125 -80.902719 403.443125 -84.023812 403.443125 -87.875375 C 403.443125 -91.726937 406.568125 -94.848031 410.419688 -94.848031 C 414.27125 -94.848031 417.392344 -91.726937 417.392344 -87.875375 Z M 417.392344 -87.875375 " transform="matrix(1, 0, 0, -1, 23.76, 105.484)"/>
<g fill="rgb(0%, 0%, 0%)" fill-opacity="1">
<use xlink:href="#glyph-0-9" x="431.682" y="196.569"/>
</g>
<path fill-rule="nonzero" fill="rgb(100%, 100%, 100%)" fill-opacity="1" stroke-width="0.3985" stroke-linecap="butt" stroke-linejoin="miter" stroke="rgb(0%, 0%, 0%)" stroke-opacity="1" stroke-miterlimit="10" d="M 358.474375 -155.906625 C 358.474375 -152.055062 355.353281 -148.933969 351.501719 -148.933969 C 347.650156 -148.933969 344.525156 -152.055062 344.525156 -155.906625 C 344.525156 -159.758187 347.650156 -162.883187 351.501719 -162.883187 C 355.353281 -162.883187 358.474375 -159.758187 358.474375 -155.906625 Z M 358.474375 -155.906625 " transform="matrix(1, 0, 0, -1, 23.76, 105.484)"/>
<g fill="rgb(0%, 0%, 0%)" fill-opacity="1">
<use xlink:href="#glyph-0-12" x="372.765" y="264.6"/>
</g>
<path fill-rule="nonzero" fill="rgb(100%, 100%, 100%)" fill-opacity="1" stroke-width="0.3985" stroke-linecap="butt" stroke-linejoin="miter" stroke="rgb(0%, 0%, 0%)" stroke-opacity="1" stroke-miterlimit="10" d="M 446.849375 -138.898812 C 446.849375 -135.04725 443.728281 -131.926156 439.876719 -131.926156 C 436.025156 -131.926156 432.904063 -135.04725 432.904063 -138.898812 C 432.904063 -142.750375 436.025156 -145.875375 439.876719 -145.875375 C 443.728281 -145.875375 446.849375 -142.750375 446.849375 -138.898812 Z M 446.849375 -138.898812 " transform="matrix(1, 0, 0, -1, 23.76, 105.484)"/>
<g fill="rgb(0%, 0%, 0%)" fill-opacity="1">
<use xlink:href="#glyph-0-10" x="461.141" y="247.592"/>
</g>
<path fill-rule="nonzero" fill="rgb(100%, 100%, 100%)" fill-opacity="1" stroke-width="0.3985" stroke-linecap="butt" stroke-linejoin="miter" stroke="rgb(0%, 0%, 0%)" stroke-opacity="1" stroke-miterlimit="10" d="M 446.849375 -104.883187 C 446.849375 -101.031625 443.728281 -97.910531 439.876719 -97.910531 C 436.025156 -97.910531 432.904063 -101.031625 432.904063 -104.883187 C 432.904063 -108.73475 436.025156 -111.855844 439.876719 -111.855844 C 443.728281 -111.855844 446.849375 -108.73475 446.849375 -104.883187 Z M 446.849375 -104.883187 " transform="matrix(1, 0, 0, -1, 23.76, 105.484)"/>
<g fill="rgb(0%, 0%, 0%)" fill-opacity="1">
<use xlink:href="#glyph-0-11" x="461.141" y="213.576"/>
</g>
<path fill-rule="nonzero" fill="rgb(100%, 100%, 100%)" fill-opacity="1" stroke-width="0.3985" stroke-linecap="butt" stroke-linejoin="miter" stroke="rgb(0%, 0%, 0%)" stroke-opacity="1" stroke-miterlimit="10" d="M 476.310313 -87.875375 C 476.310313 -84.023812 473.189219 -80.902719 469.337656 -80.902719 C 465.482188 -80.902719 462.361094 -84.023812 462.361094 -87.875375 C 462.361094 -91.726937 465.482188 -94.848031 469.337656 -94.848031 C 473.189219 -94.848031 476.310313 -91.726937 476.310313 -87.875375 Z M 476.310313 -87.875375 " transform="matrix(1, 0, 0, -1, 23.76, 105.484)"/>
<g fill="rgb(0%, 0%, 0%)" fill-opacity="1">
<use xlink:href="#glyph-0-13" x="490.599" y="196.569"/>
</g>
<path fill="none" stroke-width="0.89664" stroke-linecap="butt" stroke-linejoin="miter" stroke="rgb(0%, 0%, 0%)" stroke-opacity="1" stroke-miterlimit="10" d="M 155.974375 34.01525 L 140.349375 34.01525 " transform="matrix(1, 0, 0, -1, 23.76, 105.484)"/>
<path fill-rule="nonzero" fill="rgb(0%, 0%, 0%)" fill-opacity="1" d="M 161.371094 71.46875 L 165.753906 73.660156 L 164.109375 71.46875 L 165.753906 69.277344 "/>
<g fill="rgb(0%, 0%, 0%)" fill-opacity="1">
<use xlink:href="#glyph-1-0" x="168.967" y="67.7"/>
</g>
<path fill="none" stroke-width="0.89664" stroke-linecap="butt" stroke-linejoin="miter" stroke="rgb(0%, 0%, 0%)" stroke-opacity="1" stroke-miterlimit="10" d="M 313.361094 34.01525 L 328.986094 34.01525 " transform="matrix(1, 0, 0, -1, 23.76, 105.484)"/>
<path fill-rule="nonzero" fill="rgb(0%, 0%, 0%)" fill-opacity="1" d="M 355.484375 71.46875 L 351.101562 69.277344 L 352.746094 71.46875 L 351.101562 73.660156 "/>
<g fill="rgb(0%, 0%, 0%)" fill-opacity="1">
<use xlink:href="#glyph-1-1" x="343.913" y="67.7"/>
</g>
<path fill="none" stroke-width="0.89664" stroke-linecap="butt" stroke-linejoin="miter" stroke="rgb(0%, 0%, 0%)" stroke-opacity="1" stroke-miterlimit="10" d="M 155.974375 -121.891 L 140.349375 -121.891 " transform="matrix(1, 0, 0, -1, 23.76, 105.484)"/>
<path fill-rule="nonzero" fill="rgb(0%, 0%, 0%)" fill-opacity="1" d="M 161.371094 227.375 L 165.753906 229.566406 L 164.109375 227.375 L 165.753906 225.183594 "/>
<g fill="rgb(0%, 0%, 0%)" fill-opacity="1">
<use xlink:href="#glyph-1-2" x="167.996" y="221.668"/>
</g>
<path fill="none" stroke-width="0.89664" stroke-linecap="butt" stroke-linejoin="miter" stroke="rgb(0%, 0%, 0%)" stroke-opacity="1" stroke-miterlimit="10" d="M 313.361094 -121.891 L 328.986094 -121.891 " transform="matrix(1, 0, 0, -1, 23.76, 105.484)"/>
<path fill-rule="nonzero" fill="rgb(0%, 0%, 0%)" fill-opacity="1" d="M 355.484375 227.375 L 351.101562 225.183594 L 352.746094 227.375 L 351.101562 229.566406 "/>
<g fill="rgb(0%, 0%, 0%)" fill-opacity="1">
<use xlink:href="#glyph-1-3" x="343.429" y="223.605"/>
</g>
<path fill="none" stroke-width="0.89664" stroke-linecap="butt" stroke-linejoin="miter" stroke="rgb(0%, 0%, 0%)" stroke-opacity="1" stroke-miterlimit="10" d="M 58.915781 -19.773812 L 58.915781 -65.35975 " transform="matrix(1, 0, 0, -1, 23.76, 105.484)"/>
<path fill-rule="nonzero" fill="rgb(0%, 0%, 0%)" fill-opacity="1" d="M 82.675781 173.585938 L 84.871094 169.199219 L 82.675781 170.84375 L 80.484375 169.199219 "/>
<g fill="rgb(0%, 0%, 0%)" fill-opacity="1">
<use xlink:href="#glyph-1-4" x="86.446" y="151.566"/>
</g>
<path fill="none" stroke-width="0.89664" stroke-linecap="butt" stroke-linejoin="miter" stroke="rgb(0%, 0%, 0%)" stroke-opacity="1" stroke-miterlimit="10" d="M 234.669688 -19.773812 L 234.669688 -65.35975 " transform="matrix(1, 0, 0, -1, 23.76, 105.484)"/>
<path fill-rule="nonzero" fill="rgb(0%, 0%, 0%)" fill-opacity="1" d="M 258.429688 173.585938 L 260.621094 169.199219 L 258.429688 170.84375 L 256.234375 169.199219 "/>
<g fill="rgb(0%, 0%, 0%)" fill-opacity="1">
<use xlink:href="#glyph-1-4" x="262.194" y="153.166"/>
</g>
<g fill="rgb(0%, 0%, 0%)" fill-opacity="1">
<use xlink:href="#glyph-2-0" x="270.941" y="149.551"/>
</g>
<path fill="none" stroke-width="0.89664" stroke-linecap="butt" stroke-linejoin="miter" stroke="rgb(0%, 0%, 0%)" stroke-opacity="1" stroke-miterlimit="10" d="M 410.419688 -19.773812 L 410.419688 -65.35975 " transform="matrix(1, 0, 0, -1, 23.76, 105.484)"/>
<path fill-rule="nonzero" fill="rgb(0%, 0%, 0%)" fill-opacity="1" d="M 434.179688 173.585938 L 436.371094 169.199219 L 434.179688 170.84375 L 431.984375 169.199219 "/>
<g fill="rgb(0%, 0%, 0%)" fill-opacity="1">
<use xlink:href="#glyph-1-4" x="437.942" y="153.166"/>
</g>
<g fill="rgb(0%, 0%, 0%)" fill-opacity="1">
<use xlink:href="#glyph-2-0" x="446.689" y="149.551"/>
<use xlink:href="#glyph-2-0" x="448.98617" y="149.551"/>
</g>
</svg>
